# xmcd
# 
# Track frame offsets:
#     150
#     15905
#     30877
#     47260
#     65110
#     81625
#     96635
#     106522
#     129012
#     146582
#     163950
#     180327
# 
# Disc length: 2657
# 
# Revision: 0
# Processed by: cddbd v1.5.2PL0 Copyright (c) Steve Scherf et al.
# Submitted via: fre:ac v1.0.31
# 
DISCID=8f0a5f0c
DTITLE=スーパーヒーロー魂 - スーパーヒーロー魂 ツアーライブ(Disk1)
DYEAR=0
DGENRE=Anime
TTITLE0=宇宙刑事ギャバン
TTITLE1=仮面ライダーBLACK RX
TTITLE2=重甲ビーファイター
TTITLE3=電撃戦隊チェンジマン
TTITLE4=ぼくらのバロム1
TTITLE5=地獄のズバット
TTITLE6=斗え！忍者キャプター
TTITLE7=こころはタマゴ
TTITLE8=特急指令ソルブレイン
TTITLE9=特捜エクシードラフト
TTITLE10=ジライヤ
TTITLE11=機動刑事ジバン
EXTD=
EXTT0=
EXTT1=
EXTT2=
EXTT3=
EXTT4=
EXTT5=
EXTT6=
EXTT7=
EXTT8=
EXTT9=
EXTT10=
EXTT11=
PLAYORDER=
